# xmcd
#
# Track frame offsets: 
#        150
#        6545
#        25338
#        46288
#        66053
#        87790
#        106393
#        122718
#        141835
#        156475
#        177733
#
# Disc length: 2594 seconds
#
# Revision: 2
# Processed by: cddbd v1.5.2PL0 Copyright (c) Steve Scherf et al.
# Submitted via: ExactAudioCopy v0.95b4
#
DISCID=9a0a200b
DTITLE=Vision Divine - Send Me An Angel
DYEAR=2001
DGENRE=Power Metal
TTITLE0=Incipit [Instrumental]
TTITLE1=Send Me An Angel
TTITLE2=Pain
TTITLE3=Away From You [Ale Gatti - female vocals]
TTITLE4=Black and White [Ale Gatti - female vocals]
TTITLE5=The Call
TTITLE6=Taste Of A Goodbye [Stefano 'Brando' Brandoni - second guitar]
TTITLE7=Apocalypse Coming
TTITLE8=Nemesis [Instrumental]
TTITLE9=Flame Of Hate [Stephanie Jackson - female vocals, Steve 'Loose
TTITLE9=Unit' Scott - male voice]
TTITLE10=Take On Me [A-ha cover]
EXTD=YEAR: 2001
EXTT0=
EXTT1=
EXTT2=
EXTT3=
EXTT4=
EXTT5=
EXTT6=
EXTT7=
EXTT8=
EXTT9=
EXTT10=
PLAYORDER=
